<svg id="svg-2579" xmlns="http://www.w3.org/2000/svg" width="64" height="64" viewBox="0 0 64 64" fill="none"><rect width="64" height="64" fill="white"></rect><rect width="31" height="64" fill="#D5E1EE"></rect><path d="M10 6H15V0H17V6H22V10H10V6Z" fill="#0F2E53"></path><path d="M15 64V38H17V41H19V43H17V64H15Z" fill="#0F2E53"></path><path d="M13 12H11V16H13V12Z" fill="#4488DA"></path><path d="M13 18H11V20H13V18Z" fill="#4488DA"></path><path d="M15 12H17V19H15V12Z" fill="#4488DA"></path><path d="M17 21H15V23H17V21Z" fill="#4488DA"></path><path d="M19 12H21V16H19V12Z" fill="#4488DA"></path><path d="M21 18H19V20H21V18Z" fill="#4488DA"></path><path d="M1 34L30 21V23L1 36V34Z" fill="white"></path><path d="M1 39L30 26V28L1 41V39Z" fill="white"></path><rect x="36" y="38" width="23" height="12" fill="#F0F0F0"></rect><path d="M39 33H56V36C56 37.1046 55.1046 38 54 38H41C39.8954 38 39 37.1046 39 36V33Z" fill="#F0F0F0"></path><path d="M42 33H39V36C39 37.1045 39.8955 38 41 38H54C55.1045 38 56 37.1045 56 36H44C42.8955 36 42 35.1045 42 34V33Z" fill="#DEDEDE"></path><rect x="36" y="38" width="23" height="4" fill="#234875"></rect><rect x="44" y="44" width="7" height="2" fill="#0F2E53"></rect><path fill-rule="evenodd" clip-rule="evenodd" d="M49 29.9033C54.6426 29.168 59 24.3428 59 18.5C59 12.1484 53.8516 7 47.5 7C41.1484 7 36 12.1484 36 18.5C36 24.3428 40.3574 29.168 46 29.9033V31H49V29.9033ZM57 18.5C57 23.7471 52.7471 28 47.5 28C42.2529 28 38 23.7471 38 18.5C38 13.2529 42.2529 9 47.5 9C52.7471 9 57 13.2529 57 18.5Z" fill="#0F2E53"></path><path d="M41.8429 20.6209L48.914 13.5499L50.3282 14.9641L43.2571 22.0352L41.8429 20.6209Z" fill="#4488DA"></path><path d="M42.55 24.1565L49.6211 17.0854L51.0353 18.4996L43.9642 25.5707L42.55 24.1565Z" fill="#4488DA"></path><path d="M49.6211 12.8428L51.0353 11.4286L52.4495 12.8428L51.0353 14.257L49.6211 12.8428Z" fill="#4488DA"></path></svg>