<svg id="svg-7468" xmlns="http://www.w3.org/2000/svg" width="64" height="64" viewBox="0 0 64 64" fill="none"><rect width="64" height="64" fill="white"></rect><path d="M9 20C9 18.8954 9.89543 18 11 18H38C39.1046 18 40 18.8954 40 20V43C40 44.1046 39.1046 45 38 45H11C9.89543 45 9 44.1046 9 43V20Z" fill="#4488DA"></path><path d="M41 24C41 22.8954 41.8954 22 43 22H52.3604C53.3138 22 54.1346 22.6729 54.3216 23.6078L56 32L58.4851 32.6213C59.3754 32.8439 60 33.6438 60 34.5616V43C60 44.1046 59.1046 45 58 45H43C41.8954 45 41 44.1046 41 43V24Z" fill="#D5E1EE"></path><path d="M43 25C43 24.4477 43.4477 24 44 24H51.1701C51.6513 24 52.0643 24.3427 52.1529 24.8157L53.2779 30.8157C53.3933 31.4311 52.9212 32 52.2951 32H51C50.4477 32 50 32.4477 50 33C50 33.5523 49.5523 34 49 34H44C43.4477 34 43 33.5523 43 33V25Z" fill="#234875"></path><path d="M56 41C56 40.4477 56.4477 40 57 40H60C60.5523 40 61 40.4477 61 41V43C61 43.5523 60.5523 44 60 44H57C56.4477 44 56 43.5523 56 43V41Z" fill="#234875"></path><path d="M8 41C8 40.4477 8.44772 40 9 40H12C12.5523 40 13 40.4477 13 41V43C13 43.5523 12.5523 44 12 44H9C8.44772 44 8 43.5523 8 43V41Z" fill="#234875"></path><rect x="15" y="40" width="10" height="10" rx="5" fill="#0F2E53"></rect><rect x="18" y="43" width="4" height="4" rx="2" fill="#D5E1EE"></rect><rect x="45" y="40" width="10" height="10" rx="5" fill="#0F2E53"></rect><rect x="48" y="43" width="4" height="4" rx="2" fill="#D5E1EE"></rect><rect x="4" y="14" width="22" height="22" rx="11" fill="#F0F0F0" stroke="#0F2E53" stroke-width="2"></rect><path d="M15 18V25H19" stroke="#0F2E53" stroke-width="2"></path></svg>