<svg id="svg-8025" xmlns="http://www.w3.org/2000/svg" width="64" height="64" viewBox="0 0 64 64" fill="none"><rect x="12" y="7" width="47" height="47" rx="6" stroke="#4488DA" stroke-linecap="round" stroke-dasharray="5 5"></rect><path d="M18.7898 40.6095C19.0905 42.5602 20.7693 44 22.7431 44H48.2569C50.2307 44 51.9095 42.5602 52.2102 40.6095L54 29H17L18.7898 40.6095Z" fill="#F0F0F0"></path><path d="M25.7431 38C23.7693 38 22.0905 36.5602 21.7898 34.6095L20.925 29H17L18.7898 40.6095C19.0905 42.5602 20.7693 44 22.7431 44H48.2569C50.2307 44 51.9095 42.5602 52.2102 40.6095L52.6511 37.7498C52.2153 37.9119 51.7452 38 51.2569 38H25.7431Z" fill="#DEDEDE"></path><path d="M16 29C16 29.5523 16.4477 30 17 30H54C54.5523 30 55 29.5523 55 29C55 28.4477 54.5523 28 54 28H17C16.4477 28 16 28.4477 16 29Z" fill="#D5E1EE"></path><path d="M26 19C25.4477 19 25 19.4477 25 20V25H28V28H20V25H23V20C23 18.3431 24.3431 17 26 17H27C28.6569 17 30 18.3431 30 20V23H28V20C28 19.4477 27.5523 19 27 19H26Z" fill="#0F2E53"></path><path d="M4 20L6 16L8 20V56H4V20Z" fill="#4488DA"></path><path d="M4 56H8V59C8 60.1046 7.10457 61 6 61C4.89543 61 4 60.1046 4 59V56Z" fill="#234875"></path></svg>